<svg id="Layer_1" data-name="Layer 1" xmlns="http://www.w3.org/2000/svg" width="685.29" height="484.84" viewBox="0 0 685.29 484.84">
  <defs>
    <style>
      .cls-1 {
        fill: #9376a8;
      }

      .cls-2 {
        font-size: 10px;
      }

      .cls-2, .cls-3, .cls-4, .cls-5 {
        fill: #fff;
        font-family: P22StickleyProCaption, P22 Stickley Pro;
      }

      .cls-3 {
        font-size: 9px;
      }

      .cls-4 {
        font-size: 8px;
      }

      .cls-5 {
        font-size: 7px;
      }
    </style>
  </defs>
  <g id="_11" data-name="11">
    <path class="cls-1" d="M658.08,372.32c0-16,.21-31.94-.05-47.91-.58-36,0-71.9-.4-107.86-.12-10.26.07-20.54-.36-30.8-.41-9.71,0-19.43-.35-29.13-.53-13,.07-26-.39-39-.36-9.9,0-19.8-.36-29.69-.35-8.78-.1-17.56-.37-26.33-.11-3.34-.26-6.67-.31-10a2,2,0,0,0-.46-1.57c-2.66-2.4-3.19-5.65-3.45-8.94A34.93,34.93,0,0,1,651.93,31a7.06,7.06,0,0,1,5.6-5.77,22.47,22.47,0,0,1,8.84-.38c4.27.64,7,3,7.88,7.25a30.56,30.56,0,0,1,0,12.88,9.71,9.71,0,0,1-3.21,5.72c-.93.76-.72,1.79-.7,2.75.39,15.77.15,31.55.45,47.32.28,14.92,0,29.83.37,44.73.39,14.23.15,28.46.3,42.69.76,69.42.27,138.85.26,208.28,0,10.26-.08,20.53-.3,30.8a96.26,96.26,0,0,1-1.59,12.87c-1.09,6.9-2.35,13.77-3.53,20.66a7.27,7.27,0,0,1-.17.91c-.23.75-.3,1.71-1.35,1.74s-1.28-.84-1.47-1.63c-.22-1-.41-1.94-.54-2.92-1.21-8.69-2.35-17.4-3.62-26.09a147.36,147.36,0,0,1-1.1-22C658.11,397.94,658.08,385.13,658.08,372.32Z"/>
    <path class="cls-1" d="M633.6,402.9c.2-5.65.25-12.1.17-18.51-.11-9.4-.11-18.8-.13-28.21-.08-29.63.19-59.27-.15-88.9-.25-21.09.09-42.19-.37-63.27-.2-9.41,0-18.81-.35-28.2-.49-11.26,0-22.53-.35-33.78-.36-12.79,0-25.59-.42-38.38-.23-8.23.07-16.46-.34-24.68-.43-8.47-.14-16.94-.3-25.42a6,6,0,0,0-1.51-4.41,9.17,9.17,0,0,1-2.16-4.86,38,38,0,0,1-.09-13.08,6.81,6.81,0,0,1,5.52-6,20.88,20.88,0,0,1,11.54.31c3.45,1.07,4.72,3.87,5.4,7a27.9,27.9,0,0,1-.21,12.88,9,9,0,0,1-2.67,4.79,3.59,3.59,0,0,0-1.33,3.24c.69,11.32,0,22.65.44,34,.53,14.6,0,29.21.36,43.8.39,13.67,0,27.35.37,41,.59,24.51.1,49,.36,73.51,0,4.33.43,8.65.26,13a101.74,101.74,0,0,0-.26,11.31c.33,4.44.33,8.89.22,13.31-.31,11.74-.2,23.49-.23,35.23,0,14.71-.1,29.43,0,44.14.05,5.32.44,10.64.24,15.95-.55,14.91-.09,29.83-.4,44.73-.19,9-1.75,17.83-3.4,26.65-.73,3.89-1.42,7.79-2.1,11.69-.15.83-.32,1.68-1.33,1.72s-1.38-.8-1.5-1.61c-.68-4.46-1.3-8.93-2-13.39-1.1-7.46-2.12-14.94-2.88-22.44S633.67,411.1,633.6,402.9Z"/>
    <text class="cls-2" transform="translate(633.9 39.64)">16</text>
    <text class="cls-2" transform="translate(659.06 39.64)">16</text>
  </g>
  <g id="_10" data-name="10">
    <path class="cls-1" d="M572.8,416.5c.53-13,.1-26.11.45-39.15.51-18.94.13-37.87.3-56.8.06-6.68-.19-13.36.06-20,.56-15.34,0-30.69.4-46,.12-5-.29-10-.08-15,.61-14.9.49-29.82.29-44.73-.64-47.15-.08-94.31-.31-141.46,0-1.87-.27-3.53-1.73-4.89a6.15,6.15,0,0,1-1.42-3.19,33.3,33.3,0,0,1,0-15.06,6.13,6.13,0,0,1,4.49-4.74,18.2,18.2,0,0,1,11.12,0,7.3,7.3,0,0,1,5.17,5.36,25.66,25.66,0,0,1-.42,15.88A7.38,7.38,0,0,1,588.9,50a3.63,3.63,0,0,0-1.3,3.26c0,21.85.12,43.7,0,65.54-.06,9.76-.33,19.52-.27,29.28,0,4,.52,7.9.32,11.86-.55,11.32-.29,22.64-.32,34,0,21.47.23,42.94-.14,64.41-.28,16.46.11,32.92-.35,49.37-.33,11.75.08,23.51-.35,35.26-.54,14.85.07,29.7-.36,44.54-.38,13.05-.58,26.09-.75,39.14a103.26,103.26,0,0,1-2.3,17.81c-1,5.34-1.89,10.72-2.82,16.08-.17,1-.32,1.95-.58,2.91-.15.59-.48,1.22-1.23,1.18s-.95-.67-1.13-1.29c-.55-1.8-.41-3.68-.65-5.51-1.06-8.09-2.21-16.18-3-24.3C573.14,427.88,572.35,422.22,572.8,416.5Z"/>
    <path class="cls-1" d="M549.13,408.34c.23-18.18,0-36.37.37-54.56.45-25.92,0-51.84.36-77.76.07-4.75.17-9.5.21-14.24.14-19.54.08-39.08.08-58.62q0-54.58,0-109.16c0-6.67-.57-13.36-.21-20,.39-7.25-.48-14.46-.13-21.69a3.84,3.84,0,0,0-.75-3,11.76,11.76,0,0,1-2.8-7.11,44,44,0,0,1,.34-11.46,6.41,6.41,0,0,1,4.94-5.44,17.85,17.85,0,0,1,11.46.34c4.1,1.59,5,5.26,5.32,9.05a35.27,35.27,0,0,1-.39,9.62A9.36,9.36,0,0,1,565,49.82a4.36,4.36,0,0,0-1.53,3.71q0,51.15,0,102.29c0,21.85.24,43.7-.11,65.54-.33,21.45.05,42.92-.38,64.37-.22,10.76,0,21.52-.29,32.28-.39,17.25-.35,34.5-.37,51.75,0,8.16-.22,16.33-.47,24.48-.2,6.87-.26,13.73-.23,20.59a163.12,163.12,0,0,1-3.54,35c-.85,4-1.35,8-2,12.06a11.57,11.57,0,0,1-.39,1.62c-.2.6-.52,1.2-1.26,1.18s-.92-.71-1.06-1.32a124.89,124.89,0,0,1-1.69-12.49c-1-8.09-2-16.2-2.48-24.33C548.82,420.49,549.13,414.41,549.13,408.34Z"/>
    <text class="cls-2" transform="translate(552.19 39.05)">15</text>
    <text class="cls-2" transform="translate(577.35 39.05)">15</text>
  </g>
  <g id="_9" data-name="9">
    <path class="cls-1" d="M493,398.14c0-7.86.24-15.73,0-23.58-.45-12.06.08-24.13-.37-36.18-.4-10.77,0-21.53-.35-32.29-.58-16.82,0-33.65-.4-50.48-.16-6.61-.18-13.23-.23-19.84,0-2.29.33-4.57.28-6.85-.48-24.62-.33-49.25-.35-73.87,0-20.59.15-41.19-.05-61.78-.14-14.85-.27-29.69-.29-44.54a2.82,2.82,0,0,0-.58-2.27A9.09,9.09,0,0,1,488,40.28a37.69,37.69,0,0,1,.27-10.17,5.79,5.79,0,0,1,4.5-4.86,16.38,16.38,0,0,1,9.68.13,6.36,6.36,0,0,1,4.35,4.7,25.32,25.32,0,0,1-.08,13.38,6.26,6.26,0,0,1-1.85,3.17c-1.29,1.08-1.48,2.42-1.48,4q0,117,.06,234.1c0,5-.14,9.91,0,14.85.61,18,0,36,.41,54,.56,25,.29,50,.18,75,0,8.82-1.84,17.56-3.3,26.28-.42,2.5-.67,5-1.05,7.53-.11.76-.12,1.85-1.12,1.88-1.16,0-1.18-1.17-1.27-2-.38-3.32-.88-6.62-1.21-9.94-.61-6.15-1.53-12.26-2.08-18.42a203.66,203.66,0,0,1-1-21.66c.08-4.71,0-9.41,0-14.11Z"/>
    <path class="cls-1" d="M472.6,398.67c0-7.93.23-15.85-.05-23.77-.46-13.17.06-26.36-.38-39.52-.3-8.85,0-17.7-.34-26.54-.6-15.46.05-30.93-.38-46.39-.29-10.58-.25-21.15-.26-31.73,0-53,0-105.93-.14-158.89,0-7.66-.13-15.33-.25-23a3.59,3.59,0,0,0-.81-2.59c-2-2.08-2.45-4.7-2.53-7.38a37.76,37.76,0,0,1,.38-8.88,5.59,5.59,0,0,1,3.57-4.39,15.39,15.39,0,0,1,10.88-.11c2.7.89,3.9,3.15,4.41,5.75a27.83,27.83,0,0,1-.05,11.06,7.43,7.43,0,0,1-2.11,4.26A4.89,4.89,0,0,0,483,50.69q0,35.84,0,71.67c0,60.34-.11,120.68.14,181,.06,16.33-.07,32.67.32,49,.61,25.18.15,50.36.27,75.54,0,6.2-1.28,12.29-2.05,18.42-.66,5.33-1.57,10.63-2.37,15.95-.12.83,0,2-1.18,2s-1.17-1.18-1.3-2c-.51-3.23-.7-6.5-1.14-9.75-.83-6.06-1.35-12.16-2-18.25a151.06,151.06,0,0,1-1.08-19.61c.11-5.32,0-10.64,0-16Z"/>
    <text class="cls-2" transform="translate(472.95 37.46)">13</text>
    <text class="cls-2" transform="translate(494.11 37.46)">13</text>
  </g>
  <g id="_8" data-name="8">
    <path class="cls-1" d="M399.84,400.83c0-7.73.2-15.48,0-23.2-.46-15,.05-30.06-.4-45.08-.29-9.84,0-19.67-.3-29.5-.69-27.1,0-54.2-.39-81.29-.65-46.9,0-93.8-.42-140.7-.09-10.82-.09-21.65-.27-32.47a3.58,3.58,0,0,0-.55-2.3c-3.13-3.91-2.86-8.51-2.63-13.1,0-.19.08-.37.08-.55,0-6.87,4.62-8.57,10.89-8,6,.55,7.59,2.48,8.41,9.1a20.16,20.16,0,0,1-1.29,10.74,4.59,4.59,0,0,1-1.15,1.87c-1.46,1.08-1.54,2.5-1.54,4.1,0,79.77-.07,159.53.16,239.3.06,19.79-.09,39.59.34,59.38.52,24.07.08,48.14.27,72.2.08,9.31-1.18,18.49-2.56,27.66-.65,4.34-1.23,8.69-1.95,13-.17,1.05.19,2.85-1.33,2.85s-1.26-1.79-1.39-2.85c-.86-7.11-1.47-14.26-2.44-21.36C399.53,427.42,399.87,414.12,399.84,400.83Z"/>
    <path class="cls-1" d="M418.8,137.12c0-27.44,0-51,0-74.6,0-4.82-.49-9.63-.34-14.46a2.78,2.78,0,0,0-.56-1.92c-3.06-3.66-2.81-8-2.65-12.36,0-.92.17-1.85.27-2.77a6.69,6.69,0,0,1,6.3-6.21,23.34,23.34,0,0,1,5.35,0c3.84.45,6,2,6.91,5.67a23.3,23.3,0,0,1-.34,13.36A6.13,6.13,0,0,1,432,46.62a4,4,0,0,0-1.34,3.44c0,74.58-.11,149.15.13,223.73.06,18.8,0,37.61.32,56.42.61,32.53.27,65.07.23,97.61,0,6.92-1.33,13.77-2.32,20.63-.67,4.65-1.37,9.29-2.06,13.94a5.65,5.65,0,0,1-.12.92c-.2.71-.36,1.61-1.29,1.56s-1.05-.93-1.13-1.68c-.52-4.54-.86-9.11-1.56-13.62-3-19.35-2.48-38.84-2.64-58.32-.17-21.59-.07-43.19-.43-64.77-.19-11.76,0-23.51-.3-35.26-.66-26.67.09-53.34-.41-80C418.62,185.23,419.1,159.24,418.8,137.12Z"/>
    <text class="cls-2" transform="translate(400.35 38.02)">12</text>
    <text class="cls-2" transform="translate(420.51 38.02)">12</text>
  </g>
  <g id="_7" data-name="7">
    <path class="cls-1" d="M338.08,341.73c0-26.73.09-53.47-.06-80.2,0-6.68-.44-13.36-.22-20,.6-17.94.21-35.88.26-53.81.1-30.63-.07-61.26.14-91.88.09-12,.26-24,.25-36,0-5.75-.22-11.49-.33-17.24a2.74,2.74,0,0,0-.44-1.77c-2.63-3.18-2.32-6.88-1.94-10.62.2-2,.61-3.76,2.54-4.85,2.13-1.21,7.47-1,9.46.37a4.45,4.45,0,0,1,1.69,2.38,16.93,16.93,0,0,1,0,10.58,2.83,2.83,0,0,1-.75,1.46c-2.09,1.49-1.63,3.65-1.63,5.69,0,13.12.24,26.25-.1,39.36-.48,18.25-.05,36.5-.33,54.75-.06,3.76.06,7.51,0,11.26-.62,29.39-.05,58.78-.4,88.17-.09,7.48.38,14.95.08,22.43-.15,3.76-.37,7.53-.31,11.29.7,41.52.26,83,.21,124.56,0,10.57,0,21.15-.3,31.72-.21,6.85-1.05,13.67-1.92,20.47-.52,4.05-.92,8.11-1.41,12.16-.11.87.05,2.33-.94,2.34-1.22,0-.81-1.42-.87-2.26-.74-9.42-1.49-18.85-2.14-28.28-.27-3.94-.43-7.9-.44-11.86q0-40.1,0-80.21Z"/>
    <path class="cls-1" d="M354,371.88c0-21.75.19-40.44,0-59.12-.64-54-.38-107.92-.17-161.87.13-35.57.12-71.13.26-106.7a6.2,6.2,0,0,0-1.37-4.46,6.16,6.16,0,0,1-1.14-3.67,24.73,24.73,0,0,1,.16-7c.5-2.61,2-4.08,4.57-4.34a21.72,21.72,0,0,1,4.63,0,4.77,4.77,0,0,1,4.22,3.16,16,16,0,0,1-.17,11.6,1.06,1.06,0,0,1-.26.48C362.41,41.57,363,44,363,46.28c0,7.8.15,15.6-.05,23.4-.47,18.11-.06,36.22-.38,54.33-.46,26.66-.21,53.32-.32,80,0,7.35.14,14.7,0,22.05-.69,27.77-.17,55.55-.23,83.33,0,5.62.34,11.25.23,16.87-.23,11.12-.5,22.24-.23,33.36.18,7.79.46,15.59.21,23.37-.49,15.22,0,30.44-.37,45.66-.12,5.42-.9,10.83-1.45,16.23q-.87,8.47-1.93,16.94c-.11.9.14,2.51-.91,2.52-1.24,0-.8-1.56-.88-2.44-.51-5.79-.95-11.58-1.42-17.36C353.12,419.3,354.51,394.05,354,371.88Z"/>
    <text class="cls-2" transform="translate(338.63 35.56)">11</text>
    <text class="cls-2" transform="translate(354.8 35.56)">11</text>
  </g>
  <g id="_6" data-name="6">
    <path class="cls-1" d="M304.27,186.15c.07,10.43.27,20.87.32,31.3.06,12.18,0,24.35,0,36.53,0,7-.13,14,0,20.94.78,32.17,0,64.35.44,96.51.18,12.56-.06,25.12.36,37.66.29,8.77.06,17.54.26,26.3a159.33,159.33,0,0,1-1.37,20.7c-.23,2.15-.38,4.31-.67,6.45-.09.71,0,1.84-1.15,1.78s-1.08-1.07-1.16-1.84c-.54-4.79-1-9.59-1.56-14.37-.66-5.61-.66-11.23-.78-16.85-.28-13.05-.1-26.11-.44-39.15-.38-14.3,0-28.59-.33-42.87-.55-22.27,0-44.55-.38-66.82-.54-29.57-.13-59.15-.33-88.72-.09-11.93-.26-23.85-.29-35.78-.07-21.65.13-43.31-.14-65-.16-13.18-.08-26.35-.37-39.53-.09-4.32-.2-8.65-.27-13a3.5,3.5,0,0,0-.56-1.93c-2.2-3.3-2-6.92-1.21-10.55a3.69,3.69,0,0,1,2.87-2.87,10.44,10.44,0,0,1,6.21.23A3.89,3.89,0,0,1,306.2,28a14.7,14.7,0,0,1-.05,9.47c-.17.46-.35,1.06-.71,1.28-1.95,1.16-1.56,3-1.56,4.77,0,7.12-.15,14.24,0,21.35.38,14.6.29,29.2.3,43.79C304.23,110.76,304.21,177.61,304.27,186.15Z"/>
    <path class="cls-1" d="M290.13,191.11c0,23.69-.22,47.37.09,71.06.25,18.17.12,36.34.38,54.51.06,4-.12,7.9,0,11.84.54,23.7,0,47.4.42,71.09.26,13.11.11,26.23.26,39.34a160.57,160.57,0,0,1-1.69,21.23c-.11.86-.13,1.73-.22,2.59-.07.69-.16,1.46-1,1.53s-1.07-.7-1.16-1.38c-.37-2.94-.7-5.89-1.08-8.83-1.67-13.23-1.27-26.54-1.6-39.82-.28-11.39,0-22.77-.33-34.15-.6-20.23,0-40.47-.39-60.69-.35-17.76-.08-35.51-.33-53.27-.67-49.49,0-99-.45-148.47-.13-14.6,0-29.2-.38-43.79-.24-9.46-.18-18.93-.28-28.39,0-1.91-.14-3.82-.26-5.73a2.67,2.67,0,0,0-.43-1.19c-2.3-3.51-1.92-7.28-1.14-11.1a2.87,2.87,0,0,1,1.78-2c5.14-2.47,9.56,0,10.23,5.6a11.79,11.79,0,0,1-.16,4.59c-.41,1.45-.24,3.43-2.64,3.45-.41,0-.27.62-.28,1-.11,2.53,0,5.07.09,7.59.17,3.94.1,7.89.14,11.82.22,22.46.11,44.93.12,67.39C289.76,127.27,290.13,182.88,290.13,191.11Z"/>
    <text class="cls-2" transform="translate(283.78 35.31)">9</text>
    <text class="cls-2" transform="translate(297.94 35.31)">9</text>
  </g>
  <g id="_5" data-name="5">
    <path class="cls-1" d="M241.88,160.56c0,18.69-.14,193.85.14,212.28.34,21.91.14,43.81.18,65.71a139.1,139.1,0,0,1-1.91,20.65,28,28,0,0,1-.78,4.07c-.11.36-.08.79-.56.82a.88.88,0,0,1-.91-.79c-.22-1.15-.43-2.31-.55-3.48-.57-5.4-1.11-10.81-1.65-16.23-.11-1.1-.2-2.21-.22-3.32-.43-38.55-.42-77.11-.4-115.66,0-9.09.06-18.19,0-27.29-.7-68.56,0-137.13-.41-205.69-.07-11.87,0-23.75-.38-35.62-.15-5.26-.17-10.51-.26-15.77a4.53,4.53,0,0,0-.73-2.62c-2.22-3.35-1.63-6.95-.85-10.55a1.29,1.29,0,0,1,.26-.49c1.84-2.19,4.32-2.15,6.83-1.91a4.45,4.45,0,0,1,4.21,3.58c.82,3.18,1.41,6.64-.74,9.27-1.59,1.95-1.59,3.81-1.59,5.91,0,8.85,0,17.7.05,26.55C241.6,71.84,241.88,160.1,241.88,160.56Z"/>
    <path class="cls-1" d="M256,38.66c-1.12,1.2-.83,2.48-.75,4,.22,4,.34,32.94.25,33.19-1.21,3.38.85,195.91.85,196.91q0,84.84-.07,169.69c0,5.54-1,11.07-1.55,16.6-.15,1.44-1.18,2.72-.7,4.3a.8.8,0,0,1-.82,1c-.72,0-.83-.64-.9-1.21-.38-3.19-.8-6.38-1.13-9.57-2.89-27.28-1.18-54.64-1.47-82-.85-80.07-.27-160.14-.41-240.21,0-7.47.2-15-.06-22.43-.55-15.34,0-30.69-.39-46-.21-7.48-.18-15-.29-22.44a4.47,4.47,0,0,0-.74-2.63c-2.33-3.39-1.58-7.08-1-10.75a1.27,1.27,0,0,1,.25-.49c1.64-2.2,4-2.24,6.39-2.05,2,.16,3.81.91,4.49,3a14.86,14.86,0,0,1,0,9c-.28,1-.69,2.06-2,2.09C255.73,37.58,255.53,38.48,256,38.66Z"/>
    <text class="cls-2" transform="translate(235.86 34.49)">8</text>
    <text class="cls-2" transform="translate(250.02 34.49)">8</text>
  </g>
  <g id="_4" data-name="4">
    <path class="cls-1" d="M189.14,409.52c0-9.53.13-19.07,0-28.6-.63-40,0-80.07-.39-120.11-.52-48.52,0-97-.35-145.55-.14-20.6-.21-41.2-.42-61.8-.06-5.69-.17-11.38-.29-17.07a5.13,5.13,0,0,0-.48-2.33c-1.21-2.41-.88-5-.35-7.43.35-1.64,1.88-1.8,3.24-2,3.13-.47,5.11,1,5.35,4.13.19,2.4.37,4.85-1.75,6.71-.67.58-.43,1.52-.41,2.3.43,16.46.35,32.91.36,49.37,0,9-.43,39.1,0,45.19.09,1.25-.07,19.59,0,22.94.78,40.1,0,80.2.41,120.3.61,55.32.13,110.65.28,166a183.83,183.83,0,0,1-1.36,19c-.09.93-.09,1.86-.17,2.78,0,.45-.2.89-.74.93s-.73-.45-.79-.86c-.23-1.41-.43-2.82-.57-4.23C189,442.67,189.06,426.1,189.14,409.52Z"/>
    <path class="cls-1" d="M204.74,259.57q0,91.15,0,182.29c0,7.13-1,14.17-1.52,21.26,0,.48,0,1.1-.65,1.17s-.87-.65-.92-1.15c-.37-3.57-.75-7.13-1-10.71-1.77-25.95-.83-51.94-1.17-77.92-.54-41.88-.18-83.77-.38-125.65,0-5.69-.15-11.38-.2-17.06-.19-23.63-.09-47.26-.1-70.89,0-22.71.17-45.43-.12-68.14-.19-15.28-.09-30.56-.35-45.84-.07-3.64,0-7.31-.36-10.93-.2-2.35-1.28-4.58-1.1-7.06.22-2.92,1.11-4.36,3.68-4.35,3.34,0,4.66.33,5.2,3.89.37,2.44.44,5-1.52,7a2.65,2.65,0,0,0-.58,2.28c.55,3.09.26,24.46.31,32.06.08,14.49.06,29,0,43.45C204,115.24,204.74,253.39,204.74,259.57Z"/>
    <text class="cls-3" transform="translate(188.04 32.69)">6</text>
    <text class="cls-3" transform="translate(199.2 32.69)">6</text>
  </g>
  <g id="_3" data-name="3">
    <path class="cls-1" d="M138.29,378c0-21.35-.12-42.7,0-64,.61-91.26.23-182.53.31-273.79a8.85,8.85,0,0,0-1.13-4.37,10,10,0,0,1-.3-7.93c.67-2.06,2.88-1.78,4.67-1.75,1.64,0,3.26.43,3.69,2.21.77,3.18,1.47,6.45-1.25,9.21a1.52,1.52,0,0,0-.36,1.2c.51,13.18.17,26.36.24,39.53.06,12.31,0,24.63,0,36.94,0,1.63-.18,22.17-.15,24.47.28,21.42.11,42.84.12,64.25,0,5.88.2,11.75-.26,17.62-.23,3,.52,6,.26,9.07-.31,3.7,0,7.4,0,11.1-.07,11.44-.64,22.88-.3,34.32.16,5.25.38,10.5.29,15.75-.72,42.13-.07,84.26-.45,126.39-.08,8.66.14,17.33-.35,26a191,191,0,0,1-1.74,20.11c-.08.53,0,1.28-.7,1.33s-.86-.81-.91-1.37c-.36-3.93-.63-7.88-1-11.81-1.19-12.41-.65-24.85-.72-37.28s0-24.75,0-37.12Z"/>
    <path class="cls-1" d="M155.33,139.78c0,.8,0,12.59,0,13.89,0,58.93.23,117.85-.12,176.77-.19,30.2.07,60.39-.35,90.59-.11,8,.06,16.09-.33,24.11-.31,6.48-1.09,12.93-1.64,19.39,0,.53-.06,1.07-.73,1.05s-.82-.65-.88-1.22c-.26-2.89-.5-5.78-.77-8.67-2-21.49-.85-43-1.07-64.56q-.21-21.06,0-42.15c.64-62,.12-124,.36-186,0-7.29.34-14.58.26-21.87-.1-8.83,0-17.66-.09-26.5-.22-24.87-.17-49.74-.2-74.61a7.76,7.76,0,0,0-1-4.06c-1.34-2.32-1-4.91-.69-7.43a2.8,2.8,0,0,1,1.42-1.88,5.16,5.16,0,0,1,7.77,3.06c.54,2.65.55,5.32-1.46,7.52-.73.8-.52,1.75-.52,2.65q0,38.16,0,76.31Z"/>
    <text class="cls-3" transform="translate(139 33.99)">5</text>
    <text class="cls-3" transform="translate(151.16 33.99)">5</text>
  </g>
  <g id="_2" data-name="2">
    <path class="cls-1" d="M105.41,466.22a8.45,8.45,0,0,1-.85-4c-.45-9.94-.88-19.88-.88-29.85q.09-196.78,0-393.58a7.47,7.47,0,0,0-.83-4.11,6.53,6.53,0,0,1-.62-3.79c.15-3.17,1.5-4.33,4.64-4,2,.22,2.93,1,3.11,3,.15,1.59.71,3.64-.41,4.68-2.2,2-1.23,4.42-1.39,6.67-.21,3.14,0,14,0,16.29,0,6,0,12.11,0,18.16q0,15.48,0,31c0,5.92,0,45.1,0,46.46-.07,19.55,0,39.11,0,58.66,0,9,0,18,0,27.05,0,3.9-.57,7.77-.36,11.68.4,7.53-.25,15.07,0,22.6.3,8.41.44,16.82.31,25.23-.72,46.71-.07,93.43-.43,140.14A207.12,207.12,0,0,1,106,465C106,465.35,106.1,465.83,105.41,466.22Z"/>
    <path id="_1" data-name="1" class="cls-1" d="M94.07,441.6c.08-6.85-.23-13.69-.09-20.55.11-4.86-.11-9.75-.12-14.62s.29-9.77.17-14.65c-.38-16.25-.4-32.5-.24-48.75.61-64.16.16-128.33.31-192.49.09-34.34,0-68.68-.06-103,0-3.52-.36-7-.29-10.56a3.72,3.72,0,0,0-.4-1.79A8.66,8.66,0,0,1,92.62,31c.07-3.1,1-4.14,3.93-4.13,2.64,0,3.82,1.23,3.88,4.1,0,1.92.2,3.87-1.53,5.3-.39.33-.34.92-.33,1.41.1,4.76-.34,9.52-.37,14.27q-.09,20.4,0,40.8c0,4.56.34,22.07.29,26.27,0,4.6,0,59.16-.13,64.19-.11,7-.3,14.1-.09,21.14.15,5.14-.1,10.25-.1,15.37,0,8.4-.18,16.81,0,25.2.3,10.45-.32,20.89,0,31.34.06,2.09.35,4.19.32,6.28-.71,48.64-.08,97.27-.44,145.91-.06,8.39,0,16.81-.66,25.2-.3,3.7-.58,7.39-.94,11.08,0,.52.11,1.49-.75,1.43-.67,0-.47-.9-.51-1.42C94.58,457,94,449.34,94.07,441.6Z"/>
    <text class="cls-4" transform="translate(93.66 32.99)">4</text>
    <text class="cls-4" transform="translate(103.82 32.99)">4</text>
  </g>
  <g id="_1-2" data-name="1">
    <path class="cls-1" d="M62.11,344.93c-.14,31.86,0,63.73-.32,95.59-.09,7.71-.93,15.41-1.44,23.11,0,.47.07,1.16-.6,1.16s-.76-.73-.8-1.27q-.23-3.13-.41-6.29c-1.59-27.63-.66-55.3-.72-83q-.21-97.27.08-194.57c.1-27.26.42-54.54.14-81.8-.21-20.6-.11-41.2-.27-61.81a4.51,4.51,0,0,0-.47-2.32,8.78,8.78,0,0,1-.72-6.29c.35-1.79,1.64-2.19,3.15-2.25s3.53-.1,4,1.85c.6,2.48,1.24,5.12-1,7.31-.8.79-.5,1.87-.5,2.84,0,23.7-.08,47.4,0,71.1C62.34,114.76,62.43,276.08,62.11,344.93Z"/>
    <path class="cls-1" d="M53.32,259.55c0,29,.27,58.05-.1,87.07-.39,30.56,0,61.12-.33,91.68-.09,8.27-.69,16.54-1.46,24.79-.06.59,0,1.51-.78,1.46-.95-.06-.59-1.05-.64-1.66-2.09-26.57-1-53.18-1.1-79.77Q48.7,279,49,174.84c.1-25.93.36-51.85.12-77.77-.2-20.3-.1-40.59-.26-60.88a4.09,4.09,0,0,0-.53-2.49,6.83,6.83,0,0,1-.93-4.46c.17-3.56,2.47-5,5.85-3.75a2.63,2.63,0,0,1,1.47,1.33c1.07,2.05.6,5.86-1,7.53-.53.55-.38,1.13-.38,1.72C53.32,63.05,53.31,219.15,53.32,259.55Z"/>
    <text class="cls-5" transform="translate(49.04 32.17)">3</text>
    <text class="cls-5" transform="translate(58.2 32.17)">3</text>
  </g>
  <g id="_0" data-name="0">
    <path class="cls-1" d="M11.55,465.67a3.17,3.17,0,0,1-.75-2.25c-.26-8.4-1-16.78-.87-25.19.09-5.12-.4-10.26-.19-15.37.3-7.29.19-14.58.19-21.86q.12-123.75.11-247.5,0-58.08,0-116.18a11.6,11.6,0,0,0-.74-5.27,5.81,5.81,0,0,1-.34-2.37c0-2.54.86-3.56,3.14-3.66s3.5,1.1,3.47,3.59c0,1.48.67,3.49-1.83,3.91a2.15,2.15,0,0,0-.05.67c0,28,.11,56.07,0,84.11,0,6.08.05,100.83.05,139.38,0,25.81.27,51.63-.08,77.43-.48,35.21,0,70.42-.37,105.63A215.79,215.79,0,0,1,11.83,465,3.6,3.6,0,0,1,11.55,465.67Z"/>
    <path class="cls-1" d="M23.62,33.27a2,2,0,0,0-1,1.88A14.42,14.42,0,0,1,22.64,37q0,41.13,0,82.25c0,5.73,0,103.16,0,143.62,0,22.33.24,44.67-.07,67-.51,37,0,74-.37,111-.08,8-.52,15.93-1.39,23.86,0,.28-.15.56-.31,1.16a4.17,4.17,0,0,1-.8-2.8c-.33-7.1-1.11-14.21-.88-21.29.3-9-.61-18,0-27.08.25-4,.13-8.14.13-12.22Q18.89,278,19,153.5q0-58.08,0-116.16a12.39,12.39,0,0,0-.47-4.54,9.68,9.68,0,0,1-.63-3c.05-2.67.93-3.73,3.16-3.75s3.35,1,3.49,3.39a7.12,7.12,0,0,1-.21,2.76A1.89,1.89,0,0,1,23.62,33.27Z"/>
    <text class="cls-4" transform="translate(10.03 32.17)">2</text>
    <text class="cls-4" transform="translate(19.19 32.17)">2</text>
  </g>
</svg>
