<svg xmlns="http://www.w3.org/2000/svg" width="150" height="300" viewBox="0 0 150 300">
  <defs>
    <style>
      .cls-1 {
        fill: #9376a8;
      }

      .cls-2 {
        fill: none;
        stroke: #9376a8;
        stroke-miterlimit: 10;
        stroke-width: 4.5px;
      }
    </style>
  </defs>
  <g id="Layer_4" data-name="Layer 4">
    <g>
      <path class="cls-1" d="M67.16,119.86c-8.32-6.94-16.71-13.8-24.93-20.85-4.84-4.16-9.74-7.35-16-3.05-6.12,4.2-5.51,9.91-3.31,16,2.1,5.8,4.07,11.65,5.9,16.93L52.61,121c1.27,5.78,2.42,10.09,3.14,14.46,1.3,7.8-2.27,13.18-10.15,15.79-7.54,2.49-13.49.43-16.48-7.09-4.59-11.54-8.64-23.31-12.28-35.19-1.88-6.12-.15-12.12,5.39-16,6-4.14,13.06-5.17,18.9-.55C51,100.23,60.07,109,69.49,117.28Zm-20.71,6.41-3.38,1.32q2.41,6.48,4.84,13l2.78-1.15Z"/>
      <path class="cls-1" d="M95.84,78.84C91.42,70.58,87,62.33,82.6,54c-3.33-6.29-6.76-13.47-15.22-11.9-8.77,1.62-8.9,9.47-9.09,16.72-.13,4.93-.8,9.84-1.2,14.46,6.66.49,12.72,1,18.79,1.37,4.62.27,5.66,2.53,5.1,6.94-1.54,12.14-4.61,16.84-13,18.5C58.58,102,50.87,95.87,51.32,86.32c.54-11.47,1.74-22.92,2.51-34.39.5-7.51,4.54-11.89,11.59-13.75s13.55.45,16.94,6.46c6,10.55,10.66,21.79,15.88,32.75Z"/>
      <path class="cls-1" d="M100.24,107.19l24.32,4.25c1-6.7,3.2-14.09,2.73-21.29-.29-4.34-3.87-9.67-7.58-12.26-4.31-3-8.82.14-12.08,4.34-5.51,7.1-11.28,14-17,20.92-1.44,1.74-3.15,3.26-4.73,4.89L84,106.29c7.37-9.5,14.24-19.46,22.31-28.33,4.89-5.38,12.1-5.85,18.66-2s7.79,9.78,6.43,16.86c-1.92,10-3.59,20.13-5.23,30.22-1.22,7.48-7.23,12.75-14.42,12.39s-12.63-6.3-12.49-14.09C99.31,117,99.84,112.59,100.24,107.19Zm4.62,18,3.33.64c.85-4.76,1.76-9.53,2.4-14.33,0-.21-2.38-.75-4.31-1.35Z"/>
    </g>
    <path class="cls-2" d="M78.71,190c0-12.36,10.09-21.07,22.38-22.38,12.74-1.35,22.38,10,22.38,22.38s-9.79,24-22.38,22.38C88.83,210.83,78.71,202.37,78.71,190Z"/>
    <path class="cls-2" d="M73,246.72a22.38,22.38,0,0,1,22.38-22.38c14.14,0,23.31,9.85,22.38,22.38-.92,12.32-9.79,24-22.38,22.38C83.08,267.54,73,259.08,73,246.72Z"/>
    <path class="cls-2" d="M20.09,210.44c2.21-16.65,10-22.37,22.38-22.37,14.14,0,22.38,11.47,22.38,22.37a22.17,22.17,0,0,1-22.38,22.38C30.4,232.82,18.47,222.7,20.09,210.44Z"/>
  </g>
</svg>
